<svg height="512" viewBox="0 0 64 64" width="512" xmlns="http://www.w3.org/2000/svg"><g id="Fill_Outline" data-name="Fill Outline"><g id="Stroke_copy" data-name="Stroke copy"><g><path d="m3 22h58v39h-58z" fill="#e59730"/><path d="m61 26-4.692-1.444a31.2 31.2 0 0 0 -16.741-.448 31.2 31.2 0 0 1 -15.134 0 31.2 31.2 0 0 0 -16.741.448l-4.692 1.444v-10l2.285-1.523a7.226 7.226 0 0 1 7.592-.262 7.226 7.226 0 0 0 6.43.368l1.168-.5a7.223 7.223 0 0 1 5.131-.213l3.968 1.322a7.22 7.22 0 0 0 4.826-.092l2.455-.921a18.557 18.557 0 0 1 6.509-1.179h.828a18.544 18.544 0 0 1 7.308 1.5 18.544 18.544 0 0 0 7.308 1.5h2.192z" fill="#f9e109"/><path d="m51.5 18.5a18.544 18.544 0 0 0 -7.308-1.5h-.828a18.557 18.557 0 0 0 -6.514 1.181l-2.45.919a7.226 7.226 0 0 1 -4.821.089l-3.968-1.323a7.229 7.229 0 0 0 -5.131.214l-1.168.5a7.226 7.226 0 0 1 -6.43-.368 7.226 7.226 0 0 0 -7.592.262l-2.29 1.526v6l4.692-1.444a31.2 31.2 0 0 1 16.741-.448 31.2 31.2 0 0 0 15.134 0 31.2 31.2 0 0 1 16.741.448l4.692 1.444v-6h-2.192a18.544 18.544 0 0 1 -7.308-1.5z" fill="#fcbc04"/><g><g><path d="m33 41a8 8 0 0 1 -8 8h-3v3l-3-3h-3.764a2 2 0 0 0 -1.789 2.894 9.237 9.237 0 0 0 8.261 5.106h10.292a8 8 0 0 0 8-8v-8z" fill="#93999a"/><path d="m34 54h-10.292a9.23 9.23 0 0 1 -8.2-5h-.274a2 2 0 0 0 -1.789 2.894 9.237 9.237 0 0 0 8.263 5.106h10.292a8 8 0 0 0 7.48-5.182 7.966 7.966 0 0 1 -5.48 2.182z" fill="#656b76"/><path d="m28.87 48h4.13a8 8 0 0 0 7-4.13v-2.87h-7a8 8 0 0 1 -4.13 7z" fill="#656b76"/><path d="m36 28a7 7 0 0 0 -7 7h-12a6 6 0 0 0 -6 6v4h7l3-2 2 2h14a6 6 0 0 0 6-6v-4a7 7 0 0 0 -7-7z" fill="#d0d8da"/><circle cx="36" cy="35" fill="#93999a" r="3"/><path d="m39 41h-19a7 7 0 0 1 -6.631-4.769 5.986 5.986 0 0 0 -2.369 4.769v4h7l3-2 2 2h14a6 6 0 0 0 5.975-5.515 5.966 5.966 0 0 1 -3.975 1.515z" fill="#93999a"/><path d="m36 32a2.986 2.986 0 0 0 -2.554 1.446 2.965 2.965 0 0 1 1.554-.446 3 3 0 0 1 3 3 2.965 2.965 0 0 1 -.446 1.554 2.992 2.992 0 0 0 -1.554-5.554z" fill="#464a51"/></g><g fill="#d0d8da"><path d="m50.519 46.987 3.132-11.687a2.5 2.5 0 1 0 -.783-4.8 2.5 2.5 0 1 0 -3.081 3.769l-.787 2.941 1.414 2.449-2.45 1.414-1.307 4.879a2.5 2.5 0 0 0 -.8 4.91 2.475 2.475 0 0 0 1.581-.106 2.5 2.5 0 1 0 3.081-3.769z"/><path d="m8 29 3-2 3 2-1 2-4 2z"/><path d="m7 54v3l4 1-1-5z"/><path d="m56 52-4 4 5 2 1-3z"/></g><path d="m9.377 28.082-1.377.918 1 4 4-2 1-2-.655.327a3 3 0 0 1 -3.968-1.245z" fill="#93999a"/><path d="m46.438 50.756a2.572 2.572 0 0 1 -.441.131 2.451 2.451 0 0 0 .606.051c-.056-.06-.115-.117-.165-.182z" fill="#d0d8da"/><path d="m55.942 56.177a2.09 2.09 0 0 1 -.7-3.418l-3.242 3.241 5 2 .629-1.886a2.081 2.081 0 0 1 -1.687.063z" fill="#93999a"/><path d="m44.089 47.8a2.5 2.5 0 0 0 1.768 3.062 2.475 2.475 0 0 0 1.581-.106 2.491 2.491 0 0 0 4.155-.322 2.5 2.5 0 0 0 -1.074-3.447l3.132-11.687a2.509 2.509 0 0 0 2.655-2.592 2.493 2.493 0 0 0 -3.438-2.213l-3.781 13.852a4 4 0 0 1 -2.727 2.784z" fill="#93999a"/><path d="m8.055 53.648-1.055.352v3l4 1-.267-1.333a3.834 3.834 0 0 1 -2.678-3.019z" fill="#93999a"/></g></g></g><g id="Stroke_Cut_copy_2" data-name="Stroke Cut copy 2"><g fill="#323232"><path d="m41.553 5.9a6.2 6.2 0 0 1 3.447 5.572v.569c-.27-.011-.536-.041-.808-.041a1 1 0 0 0 0 2 17.478 17.478 0 0 1 6.914 1.419 19.452 19.452 0 0 0 7.702 1.581h2.192a1 1 0 0 0 0-2h-2.192c-.26 0-.515-.028-.773-.039a6.189 6.189 0 0 1 3.412-5.061 1 1 0 1 0 -.894-1.79 8.22 8.22 0 0 0 -3.553 3.412 8.22 8.22 0 0 0 -3.553-3.417 1 1 0 0 0 -.894 1.79 6.192 6.192 0 0 1 3.4 4.851 17.5 17.5 0 0 1 -4.056-1.165 19.455 19.455 0 0 0 -4.897-1.355v-.754a6.2 6.2 0 0 1 3.447-5.572 1 1 0 1 0 -.894-1.79 8.2 8.2 0 0 0 -3.553 3.452 8.2 8.2 0 0 0 -3.553-3.457 1 1 0 1 0 -.894 1.79z"/><path d="m3 17a1 1 0 0 0 .554-.168l2.286-1.523a6.19 6.19 0 0 1 6.54-.226 8.267 8.267 0 0 0 7.32.417l1.17-.5a6.224 6.224 0 0 1 4.419-.185l3.969 1.324a8.242 8.242 0 0 0 5.488-.1l2.455-.92a17.48 17.48 0 0 1 3.537-.92 1 1 0 1 0 -.3-1.978 19.554 19.554 0 0 0 -3.94 1.025l-2.454.92a6.1 6.1 0 0 1 -.95.267 6.191 6.191 0 0 1 3.353-4.533 1 1 0 1 0 -.894-1.79 8.22 8.22 0 0 0 -3.553 3.412 8.22 8.22 0 0 0 -3.553-3.417 1 1 0 1 0 -.894 1.79 6.186 6.186 0 0 1 3.364 4.6 6.083 6.083 0 0 1 -1.026-.247l-3.969-1.328a8.2 8.2 0 0 0 -5.84.243l-1.169.5a6.181 6.181 0 0 1 -1.913.47v-1.661a6.2 6.2 0 0 1 3.447-5.572 1 1 0 0 0 -.894-1.79 8.215 8.215 0 0 0 -3.553 3.412 8.215 8.215 0 0 0 -3.553-3.417 1 1 0 1 0 -.894 1.79 6.2 6.2 0 0 1 3.447 5.577v1.508a6.2 6.2 0 0 1 -1.627-.633 8.176 8.176 0 0 0 -8.643.3l-2.285 1.521a1 1 0 0 0 .555 1.832z"/><path d="m3 27a1 1 0 0 0 .294-.044l4.692-1.443a30.344 30.344 0 0 1 12.882-1.07 1 1 0 1 0 .264-1.982 32.378 32.378 0 0 0 -13.732 1.139l-4.694 1.444a1 1 0 0 0 .294 1.956z"/><path d="m61 27a1 1 0 0 0 .294-1.956l-4.694-1.444a32.186 32.186 0 0 0 -17.279-.462 30.324 30.324 0 0 1 -14.648 0 1 1 0 1 0 -.486 1.939 32.294 32.294 0 0 0 15.619 0 30.2 30.2 0 0 1 16.206.435l4.691 1.443a1 1 0 0 0 .297.045z"/><path d="m40 35a4 4 0 1 0 -4.461 3.953l1.047 1.047-1.293 1.293a1 1 0 1 0 1.414 1.414l2-2a1 1 0 0 0 0-1.414l-.8-.8a3.986 3.986 0 0 0 2.093-3.493zm-4 2a2 2 0 1 1 2-2 2 2 0 0 1 -2 2z"/><circle cx="16" cy="39" r="1"/><path d="m35 49a1 1 0 0 0 1-1v-2h1a7.009 7.009 0 0 0 7-7v-4a8 8 0 0 0 -16 0 1 1 0 0 0 2 0 6 6 0 0 1 12 0v4a5.006 5.006 0 0 1 -5 5h-13.586l-1.27-1.27.805-2.414a1 1 0 0 0 -.054-.763l-.895-1.789v-1.764h2v2a1 1 0 0 0 2 0v-3a1 1 0 0 0 -1-1h-8a7.008 7.008 0 0 0 -7 7v4a1 1 0 0 0 1 1h7a1.006 1.006 0 0 0 .555-.168l2.318-1.545 1.42 1.42a1 1 0 0 0 .707.293h6.882a7.011 7.011 0 0 1 -4.882 2h-3a1 1 0 0 0 -1 1v.586l-1.293-1.293a1 1 0 0 0 -.707-.293h-3.764a3 3 0 0 0 -2.683 4.342 10.18 10.18 0 0 0 9.155 5.658h10.292a9.01 9.01 0 0 0 9-9v-.81a1 1 0 0 0 -2 0v.81a7.009 7.009 0 0 1 -7 7h-10.292a8.189 8.189 0 0 1 -7.366-4.553 1 1 0 0 1 .894-1.447h3.35l2.707 2.707a1.011 1.011 0 0 0 .391.241l3 1a.991.991 0 0 0 .632 0l3-1a1 1 0 1 0 -.632-1.9l-2.684.898-2-.667v-1.279h2a9.014 9.014 0 0 0 7.451-4h1.549v2a1 1 0 0 0 1 1zm-17.3-5h-5.7v-3a5.006 5.006 0 0 1 5-5h3v2a1 1 0 0 0 .105.447l.815 1.63-.76 2.281z"/><path d="m47.137 51.885a3.486 3.486 0 0 0 2.263.84 3.5 3.5 0 0 0 2.269-6.167l2.068-7.72a1 1 0 1 0 -1.931-.518l-.42 1.566a1 1 0 0 0 -.108-.727l-1.207-2.091.682-2.546a1 1 0 0 0 -.52-1.153 1.5 1.5 0 0 1 1.059-2.792 1.488 1.488 0 0 1 .786.531 1 1 0 0 0 1.164.313 1.5 1.5 0 1 1 .47 2.88 1 1 0 1 0 -.123 2 3.5 3.5 0 0 0 1.119-6.874 3.461 3.461 0 0 0 -1.538-.056 3.419 3.419 0 0 0 -1.36-.721 3.5 3.5 0 0 0 -3.173 6.047l-.605 2.258a1 1 0 0 0 .1.759l.914 1.583-1.584.914a1 1 0 0 0 -.466.607l-1.122 4.191a3.5 3.5 0 0 0 -.275 6.823 3.417 3.417 0 0 0 1.538.053zm-2.082-3.826a1.5 1.5 0 0 1 1.538-1.109 1.006 1.006 0 0 0 1.028-.739l1.2-4.479 2.092-1.207a1 1 0 0 0 .457-.575l-1.816 6.779a1 1 0 0 0 .52 1.154 1.5 1.5 0 0 1 -1.059 2.79 1.487 1.487 0 0 1 -.786-.53 1 1 0 0 0 -1.166-.313 1.482 1.482 0 0 1 -.946.066 1.5 1.5 0 0 1 -1.062-1.837z"/><path d="m8.582 33.908a.986.986 0 0 0 .418.092 1 1 0 0 0 .447-.1l4-2a1 1 0 0 0 .448-.448l1-2a1 1 0 0 0 -.34-1.279l-3-2a1 1 0 0 0 -1.11 0l-3 2a1 1 0 0 0 -.415 1.074l1 4a1 1 0 0 0 .552.661zm2.418-5.708 1.711 1.141-.456.912-2.587 1.295-.527-2.107z"/><path d="m6 57a1 1 0 0 0 .757.97l4 1a1 1 0 0 0 .933-.246 1 1 0 0 0 .29-.92l-1-5a1 1 0 0 0 -1.3-.752l-3 1a1 1 0 0 0 -.68.948zm2-2.279 1.242-.414.467 2.339-1.709-.427z"/><path d="m51.629 56.929 5 2a1 1 0 0 0 1.319-.613l1-3a1 1 0 0 0 -.116-.871l-2-3a1 1 0 0 0 -1.539-.152l-4 4a1 1 0 0 0 .336 1.636zm4.216-3.36 1.055 1.578-.509 1.531-2.608-1.043z"/><circle cx="43" cy="57" r="1"/><circle cx="56" cy="44" r="1"/><circle cx="45" cy="28" r="1"/><circle cx="25" cy="30" r="1"/><circle cx="19" cy="29" r="1"/><circle cx="7" cy="47" r="1"/><circle cx="48" cy="18" r="1"/><circle cx="38" cy="19" r="1"/><circle cx="23" cy="17" r="1"/><circle cx="18" cy="19" r="1"/><circle cx="10" cy="18" r="1"/><circle cx="30" cy="21" r="1"/><circle cx="7" cy="21" r="1"/><circle cx="56" cy="20" r="1"/><path d="m61 60h-58a1 1 0 0 0 0 2h58a1 1 0 0 0 0-2z"/></g></g></g></svg>