<svg id="_x33_0" enable-background="new 0 0 64 64" height="512" viewBox="0 0 64 64" width="512" xmlns="http://www.w3.org/2000/svg"><path d="m55 46c-1.11 0-2.07.613-2.589 1.512l-4.559-2.605 5.729-4.092-1.162-1.628-5.696 4.069-.643-3.856c1.147-.704 1.92-1.959 1.92-3.4 0-2.206-1.794-4-4-4s-4 1.794-4 4 1.794 4 4 4c.052 0 .099-.013.15-.015l.761 4.564-6.492 4.637 1.162 1.628 6.479-4.628 6.005 3.431c.286 1.359 1.492 2.383 2.935 2.383 1.654 0 3-1.346 3-3s-1.346-3-3-3zm-13-10c0-1.103.897-2 2-2s2 .897 2 2-.897 2-2 2-2-.897-2-2zm13 14c-.551 0-1-.449-1-1s.449-1 1-1 1 .449 1 1-.449 1-1 1z"/><path d="m24.419 50.814 1.162-1.628-6.492-4.637.761-4.564c.051.002.098.015.15.015 2.206 0 4-1.794 4-4s-1.794-4-4-4-4 1.794-4 4c0 1.441.773 2.696 1.92 3.4l-.642 3.855-5.696-4.069-1.162 1.628 5.729 4.092-4.559 2.605c-.52-.898-1.48-1.511-2.59-1.511-1.654 0-3 1.346-3 3s1.346 3 3 3c1.443 0 2.649-1.024 2.935-2.382l6.005-3.431zm-4.419-16.814c1.103 0 2 .897 2 2s-.897 2-2 2-2-.897-2-2 .897-2 2-2zm-11 16c-.551 0-1-.449-1-1s.449-1 1-1 1 .449 1 1-.449 1-1 1z"/><path d="m44 14c-2.757 0-5 2.243-5 5 0 1.136.395 2.172 1.036 3.012l-7.036 4.222v-12.234h-2v8.234l-7.433-4.46c.268-.537.433-1.134.433-1.774 0-2.206-1.794-4-4-4s-4 1.794-4 4 1.794 4 4 4c.83 0 1.601-.255 2.241-.689l8.759 5.255v21.434h2v-17.434l8.641-5.185c.706.382 1.502.619 2.359.619 2.757 0 5-2.243 5-5s-2.243-5-5-5zm-24 4c-1.103 0-2-.897-2-2s.897-2 2-2 2 .897 2 2-.897 2-2 2zm24 4c-1.654 0-3-1.346-3-3s1.346-3 3-3 3 1.346 3 3-1.346 3-3 3z"/><g fill="#f0bc5e"><path d="m32 1c-3.86 0-7 3.14-7 7s3.14 7 7 7 7-3.14 7-7-3.14-7-7-7z"/><path d="m57 31c-3.309 0-6 2.691-6 6s2.691 6 6 6 6-2.691 6-6-2.691-6-6-6z"/><path d="m7 31c-3.309 0-6 2.691-6 6s2.691 6 6 6 6-2.691 6-6-2.691-6-6-6z"/></g><path d="m35 8h-2c0-.551-.449-1-1-1v-2c1.654 0 3 1.346 3 3z"/><path d="m60 37h-2c0-.551-.449-1-1-1v-2c1.654 0 3 1.346 3 3z"/><path d="m6 37h-2c0-1.654 1.346-3 3-3v2c-.551 0-1 .449-1 1z"/><path d="m32 63c-4.962 0-9-4.038-9-9s4.038-9 9-9 9 4.038 9 9-4.038 9-9 9zm0-13c-2.206 0-4 1.794-4 4s1.794 4 4 4 4-1.794 4-4-1.794-4-4-4z" fill="#f0bc5e"/><path d="m32 59c-2.757 0-5-2.243-5-5s2.243-5 5-5 5 2.243 5 5-2.243 5-5 5zm0-8c-1.654 0-3 1.346-3 3s1.346 3 3 3 3-1.346 3-3-1.346-3-3-3z"/></svg>