<svg id="Capa_1" enable-background="new 0 0 512.004 512.004" height="512" viewBox="0 0 512.004 512.004" width="512" xmlns="http://www.w3.org/2000/svg"><g><g><path d="m10 126.17h99.222l64.055-28.138 64.577 141.772v196.483h-77.2c-15.57 0-30.685-5.255-42.896-14.915l-36.578-28.932h-71.18z" fill="#fff0d7"/></g><g><path d="m237.854 482.372h-94.725c-17.071 0-33.538-6.315-46.232-17.729l-25.713-23.121h-61.18v-49.08h71.18l36.574 28.933c12.212 9.661 27.328 14.917 42.899 14.917h77.197z" fill="#ffd88a"/></g><g><path d="m291.225 43.962c0-.008 0-.016 0-.023h-.924l-60.519-14.308v85.647l50.592 115.953v152.019h182.238v-176.559c0-11.452 4.453-22.455 12.417-30.684l26.971-27.865v-104.203h-122.776c0 .008.001.016.001.023" fill="#fff0d7"/></g><g><path d="m280.374 383.252h182.24v28.08c0 12.07-9.79 21.85-21.85 21.85h-160.39z" fill="#ffd88a"/></g><g><path d="m291.225 43.962c0-.007 0-.014 0-.02h-.921l-60.52-14.31v85.65l36.36 83.34 14.23 32.61v152.02h182.24v-176.563c0-11.453 4.454-22.458 12.42-30.687l26.97-27.86v-104.2h-122.78z" fill="#fff0d7"/></g><g><path d="m237.854 272.122c-29.76 22.3-32.7 24.57-55.44 45.71 9.26 15.8 4.98 36.33-10.29 47.03-16.08 11.26-38.24 7.35-49.5-8.72-5.55-7.92-7.41-17.32-5.95-26.16-8.81-1.66-17.01-6.61-22.55-14.54-11.26-16.07-7.36-38.23 8.72-49.49 15.17-10.63 35.76-7.75 47.49 6.13 11.23-5.55 23-11.96 35.02-19l17.781 1.451 9.299-18.141c6.12-3.95 12.24-8.02 18.32-12.18l7.1 15.59z" fill="#9ebccf"/></g><g><path d="m411.814 186.442h-18.93l-17.53 26.72v.01c-9.57-.55-18.83-4.96-25.32-12.78-21.23 10.88-45.46 25.46-69.66 41.63v-10.79l-14.23-32.61c19.1-14.61 36.89-29.6 51.9-43.95-9.07-15.77-4.75-36.14 10.44-46.78 16.08-11.26 38.24-7.35 49.5 8.72 5.55 7.92 7.41 17.32 5.95 26.16 8.81 1.65 17 6.61 22.55 14.53 6.18 8.82 7.79 19.47 5.33 29.14z" fill="#9ebccf"/></g><g><path d="m502.004 33.942h-122.78c-5.522 0-10 4.477-10 10s4.478 10 10 10h112.78v90.153l-24.154 24.952c-9.825 10.148-15.236 23.517-15.236 37.642v60.311l-25.698 26.612h-26.902l-19.45-19.45c-1.876-1.875-4.419-2.929-7.071-2.929h-20.658c-5.522 0-10 4.477-10 10s4.478 10 10 10h16.516l19.45 19.45c1.876 1.875 4.419 2.929 7.071 2.929h35.29c2.713 0 5.31-1.102 7.193-3.054l14.26-14.767v77.462h-162.241v-125.867c20.48-13.516 40.253-25.399 57.815-34.747 7.45 6.207 16.792 9.954 26.591 10.517 3.601.213 7.132-1.622 9.045-4.676l14.458-22.038h13.53c4.573 0 8.563-3.103 9.691-7.535 3.272-12.865.782-26.476-6.832-37.343-5.13-7.321-12.152-12.863-20.278-16.118-.28-8.755-3.091-17.25-8.222-24.572-14.407-20.563-42.859-25.576-63.427-11.172-17.189 12.041-23.677 33.575-16.785 52.61-10.672 9.894-22.676 20.112-35.802 30.503l-30.376-69.62v-70.923l48.22 11.401c.754.179 1.526.269 2.301.269h.463c.151.007.305.01.458.01 5.522 0 10-4.487 10-10.01 0-5.436-4.338-9.859-9.741-9.997l-59.399-14.045c-2.975-.703-6.107-.008-8.505 1.889-2.397 1.896-3.796 4.786-3.796 7.842v85.65c0 1.376.284 2.737.834 3.999l49.757 114.038v149.933 49.93c0 5.523 4.478 10 10 10h160.39c17.562 0 31.85-14.288 31.85-31.85v-28.08-176.563c0-8.905 3.411-17.333 9.605-23.731l26.97-27.86c1.806-1.865 2.815-4.359 2.815-6.956v-104.2c0-5.522-4.478-9.999-10-9.999zm-177.05 127.958c3.328-3.182 4.054-8.224 1.758-12.214-6.516-11.33-3.218-26.09 7.508-33.603 11.535-8.078 27.493-5.266 35.574 6.267 3.85 5.494 5.367 12.167 4.273 18.792-.887 5.366 2.679 10.457 8.025 11.458 6.596 1.235 12.35 4.943 16.201 10.439 2.796 3.99 4.358 8.64 4.589 13.401h-9.999c-3.37 0-6.513 1.697-8.361 4.515l-13.995 21.332c-4.971-1.39-9.466-4.267-12.799-8.283-2.991-3.604-8.084-4.649-12.256-2.513-17.182 8.806-36.67 20.184-57.012 33.268l-10.033-22.994c17.453-13.62 33.078-27.008 46.527-39.865zm127.659 249.432c0 6.534-5.315 11.85-11.85 11.85h-150.39v-29.93h162.239v18.08z"/><path d="m182.378 93.887c-2.269-4.979-8.115-7.208-13.122-5.011l-62.134 27.293h-97.122c-5.522 0-10 4.477-10 10l.004 315.352c0 5.523 4.478 10 10 10h57.345l22.862 20.557c14.553 13.086 33.347 20.293 52.918 20.293h94.725c5.522 0 10-4.477 10-10v-46.08c0-.001 0-.002 0-.002s0-.002 0-.002v-196.483-.002c0-1.43-.307-2.843-.899-4.145zm-8.592 229.002c6.662 11.368 3.412 26.207-7.398 33.782-11.534 8.077-27.493 5.266-35.574-6.268-3.85-5.493-5.367-12.167-4.273-18.792.886-5.362-2.674-10.45-8.015-11.457-6.617-1.247-12.372-4.954-16.212-10.452-3.913-5.584-5.417-12.359-4.234-19.075 1.184-6.717 4.912-12.571 10.504-16.486 4.485-3.143 9.612-4.67 14.69-4.67 7.244 0 14.389 3.108 19.423 9.065 2.968 3.511 7.948 4.547 12.068 2.51 10.358-5.12 21.416-11.082 32.908-17.743l14.648 1.195c4.048.332 7.867-1.805 9.713-5.405l8.079-15.762c2.139-1.391 4.285-2.801 6.433-4.226l1.307 2.869v25.146c-26.335 19.751-30.464 23.135-52.249 43.387-3.432 3.192-4.188 8.339-1.818 12.382zm-64.564-186.719c1.385 0 2.754-.288 4.021-.844l55.023-24.17 49.88 109.508c-3.719 2.489-7.444 4.943-11.136 7.326-1.476.953-2.675 2.277-3.477 3.84l-6.249 12.192-11.118-.907c-2.051-.17-4.096.3-5.867 1.338-9.734 5.701-19.145 10.889-28.065 15.472-15.533-12.942-37.967-14.188-55.127-2.165-9.965 6.978-16.614 17.418-18.725 29.398-2.11 11.979.572 24.061 7.543 34.009 5.116 7.325 12.142 12.873 20.287 16.136.279 8.757 3.09 17.254 8.222 24.576 8.851 12.632 22.998 19.395 37.365 19.394 9.021 0 18.13-2.667 26.063-8.223 16.992-11.907 23.505-33.885 16.672-52.822 13.381-12.367 19.273-17.385 33.319-28.065v134.123h-67.2c-13.261 0-26.291-4.531-36.691-12.757l-36.577-28.933c-1.744-1.38-3.979-2.157-6.204-2.157h-48.677l17.816-19.738h16.172c5.522 0 10-4.477 10-10s-4.478-10-10-10h-20.616c-2.83 0-5.527 1.199-7.423 3.299l-18.453 20.444v-230.274zm-89.218 266.272h48.936l-5.925 29.08h-43.011zm207.85 69.93h-84.725c-14.626 0-28.67-5.386-39.545-15.165l-21.459-19.295 5.611-27.536 23.818 18.842c13.917 11.011 31.355 17.075 49.103 17.075h67.197z"/><path d="m55.944 199.974c1.634 1.005 3.442 1.484 5.229 1.484 3.358 0 6.639-1.692 8.527-4.762l7.399-12.031 16.289 6.486c5.132 2.044 10.946-.46 12.99-5.591 2.043-5.131-.461-10.947-5.592-12.99l-24.101-9.596c-4.514-1.8-9.671-.09-12.217 4.051l-11.805 19.192c-2.891 4.705-1.423 10.864 3.281 13.757z"/><path d="m327.422 47.771c1.643 3.94 5.713 6.446 9.968 6.141 4.352-.312 8.053-3.541 9.017-7.782 1.987-8.738-8.186-15.473-15.508-10.358-3.802 2.656-5.229 7.723-3.477 11.999z"/></g></g></svg>